<svg width="600" height="556" viewBox="0 0 600 556" fill="none" xmlns="http://www.w3.org/2000/svg">
<path d="M87.8664 509.822C205.029 571.025 394.971 571.025 512.134 509.822C629.296 448.619 629.282 349.397 512.134 288.194C394.985 226.991 205.029 226.991 87.8664 288.194C-29.2958 349.397 -29.2818 448.619 87.8664 509.822Z" fill="#F5F5F5"/>
<path d="M513.742 358.975C536.577 358.975 555.089 350.154 555.089 339.273C555.089 328.392 536.577 319.571 513.742 319.571C490.906 319.571 472.394 328.392 472.394 339.273C472.394 350.154 490.906 358.975 513.742 358.975Z" fill="#E6E6E6"/>
<path d="M87.1393 474.235C108.075 474.235 125.047 466.147 125.047 456.17C125.047 446.192 108.075 438.104 87.1393 438.104C66.2036 438.104 49.2318 446.192 49.2318 456.17C49.2318 466.147 66.2036 474.235 87.1393 474.235Z" fill="#E6E6E6"/>
<path d="M368.586 508.969C390.371 508.969 408.031 500.549 408.031 490.162C408.031 479.775 390.371 471.355 368.586 471.355C346.801 471.355 329.14 479.775 329.14 490.162C329.14 500.549 346.801 508.969 368.586 508.969Z" fill="#E6E6E6"/>
<path d="M172.798 418.975C194.583 418.975 212.244 410.555 212.244 400.168C212.244 389.781 194.583 381.361 172.798 381.361C151.013 381.361 133.353 389.781 133.353 400.168C133.353 410.555 151.013 418.975 172.798 418.975Z" fill="#E6E6E6"/>
<path d="M404.927 293.284C405.892 281.692 432.459 238.205 440.583 231.466C448.707 224.726 463.054 207.695 456.873 198.019C450.693 188.343 432.529 192.649 415.47 222.81C402.243 246.204 398.132 297.94 398.132 297.94L404.927 293.284Z" fill="#02897A"/>
<path d="M401.292 292.193H401.18C401.089 292.18 401.002 292.148 400.924 292.1C400.846 292.053 400.778 291.99 400.725 291.916C400.671 291.841 400.633 291.757 400.613 291.668C400.593 291.579 400.59 291.486 400.606 291.396C408.115 242.848 424.07 212.561 449.379 198.802C449.542 198.713 449.734 198.692 449.912 198.745C450 198.771 450.083 198.814 450.154 198.872C450.226 198.929 450.285 199.001 450.329 199.082C450.373 199.162 450.401 199.251 450.411 199.343C450.421 199.434 450.412 199.527 450.386 199.615C450.361 199.703 450.317 199.785 450.26 199.857C450.202 199.929 450.131 199.988 450.05 200.032C425.146 213.568 409.43 243.533 401.977 291.62C401.947 291.78 401.863 291.926 401.738 292.03C401.613 292.135 401.455 292.193 401.292 292.193Z" fill="white"/>
<path d="M407.598 237.045C407.598 237.045 428.922 200.186 446.582 183.309C456.37 173.954 462.383 167.928 461.851 160.852C461.46 155.483 456.999 152.616 447.407 154.98C428.293 159.678 418.043 179.044 411.443 200.731C406.759 216.001 407.598 237.045 407.598 237.045Z" fill="#37474F"/>
<path opacity="0.2" d="M407.598 237.045C407.598 237.045 428.922 200.186 446.582 183.309C456.37 173.954 462.383 167.928 461.851 160.852C461.46 155.483 456.999 152.616 447.407 154.98C428.293 159.678 418.043 179.044 411.443 200.731C406.759 216.001 407.598 237.045 407.598 237.045Z" fill="#00FFE3"/>
<path d="M410.073 230.99H409.975C409.79 230.959 409.625 230.857 409.515 230.705C409.405 230.553 409.359 230.365 409.388 230.179C416.98 182.274 445.841 164.236 454.51 159.846C454.675 159.763 454.867 159.748 455.042 159.806C455.218 159.864 455.363 159.989 455.447 160.153C455.49 160.235 455.516 160.324 455.524 160.416C455.532 160.507 455.521 160.6 455.492 160.687C455.464 160.774 455.418 160.855 455.357 160.924C455.296 160.994 455.222 161.05 455.14 161.09C446.624 165.411 418.267 183.141 410.772 230.403C410.745 230.568 410.66 230.719 410.532 230.827C410.403 230.934 410.24 230.992 410.073 230.99Z" fill="white"/>
<path d="M527.039 128.244L522.425 119.575L526.13 108.864V102.306L514.776 108.864V115.422L519.656 123.895C519.732 124.028 519.851 124.131 519.992 124.189L527.039 128.244Z" fill="#11B5E4"/>
<path opacity="0.1" d="M527.039 128.244L522.425 119.575L526.13 108.864V102.306L514.776 108.864V115.422L519.656 123.895C519.732 124.028 519.851 124.131 519.992 124.189L527.039 128.244Z" fill="black"/>
<path d="M500.696 87.54L531.961 69.3623C533.018 68.8311 534.184 68.5544 535.366 68.5544C536.548 68.5544 537.714 68.8311 538.771 69.3623L541.567 70.9704C542.562 71.6142 543.39 72.4847 543.983 73.5104C544.576 74.5362 544.917 75.6879 544.979 76.8711V102.208C544.914 103.39 544.571 104.541 543.979 105.566C543.386 106.591 542.56 107.462 541.567 108.109L510.274 126.286C509.217 126.818 508.051 127.094 506.869 127.094C505.687 127.094 504.521 126.818 503.464 126.286L500.668 124.678C499.676 124.032 498.852 123.161 498.261 122.135C497.671 121.11 497.331 119.959 497.27 118.778V93.4128C497.342 92.2342 497.689 91.089 498.284 90.069C498.879 89.0491 499.705 88.1829 500.696 87.54Z" fill="#11B5E4"/>
<path opacity="0.3" d="M500.696 87.54L531.961 69.3623C533.018 68.8311 534.184 68.5544 535.366 68.5544C536.548 68.5544 537.714 68.8311 538.771 69.3623L541.567 70.9704C542.562 71.6142 543.39 72.4847 543.983 73.5104C544.576 74.5362 544.917 75.6879 544.979 76.8711V102.208C544.914 103.39 544.571 104.541 543.979 105.566C543.386 106.591 542.56 107.462 541.567 108.109L510.274 126.286C509.217 126.818 508.051 127.094 506.869 127.094C505.687 127.094 504.521 126.818 503.464 126.286L500.668 124.678C499.676 124.032 498.852 123.161 498.261 122.135C497.671 121.11 497.331 119.959 497.27 118.778V93.4128C497.342 92.2342 497.689 91.089 498.284 90.069C498.879 89.0491 499.705 88.1829 500.696 87.54Z" fill="white"/>
<path d="M510.288 126.259C508.4 127.335 506.876 126.468 506.876 124.287V98.9501C506.941 97.7676 507.284 96.6172 507.877 95.592C508.47 94.5668 509.296 93.6957 510.288 93.0493L541.582 74.8716C543.469 73.781 544.993 74.6619 544.993 76.8432V102.18C544.928 103.363 544.585 104.513 543.993 105.538C543.4 106.563 542.574 107.435 541.582 108.081" fill="#11B5E4"/>
<path d="M497.298 118.75C497.359 119.931 497.699 121.082 498.289 122.107C498.88 123.133 499.704 124.004 500.696 124.65L503.492 126.258C504.452 126.74 505.502 127.013 506.575 127.059C507.648 127.104 508.718 126.922 509.715 126.524C508.121 127.139 506.918 126.23 506.918 124.287V98.95C506.963 97.764 507.31 96.6092 507.925 95.5941L498.333 90.001C497.723 91.0173 497.381 92.1722 497.34 93.3569L497.298 118.75Z" fill="#11B5E4"/>
<path opacity="0.1" d="M497.298 118.75C497.359 119.931 497.699 121.082 498.289 122.107C498.88 123.133 499.704 124.004 500.696 124.65L503.492 126.258C504.452 126.74 505.502 127.013 506.575 127.059C507.648 127.104 508.718 126.922 509.715 126.524C508.121 127.139 506.918 126.23 506.918 124.287V98.95C506.963 97.764 507.31 96.6092 507.925 95.5941L498.333 90.001C497.723 91.0173 497.381 92.1722 497.34 93.3569L497.298 118.75Z" fill="black"/>
<path d="M521.894 119.533L526.774 127.992C526.846 128.111 526.95 128.208 527.075 128.27C527.199 128.333 527.339 128.359 527.477 128.346C527.616 128.333 527.748 128.281 527.859 128.196C527.969 128.111 528.053 127.997 528.102 127.866L533.262 112.975V106.417L521.894 112.975V119.533Z" fill="#11B5E4"/>
<path d="M525.949 110.877L522.453 109.954C519.125 109.074 515.154 107.158 515.154 102.865C515.322 101.116 515.899 99.4313 516.839 97.947C517.779 96.4627 519.056 95.2207 520.565 94.3217C521.06 93.9677 521.641 93.7531 522.247 93.7002C522.853 93.6473 523.462 93.7581 524.01 94.021C524.559 94.2838 525.027 94.6892 525.366 95.1946C525.704 95.7001 525.901 96.2871 525.935 96.8945C526.284 94.0979 528.549 89.7073 531.304 88.1133C534.296 86.3934 536.715 87.4141 536.715 90.4065C536.715 94.6852 532.758 101.201 529.43 105.927L525.949 110.877Z" fill="white"/>
<path d="M63.6761 194.788L94.9697 176.68C96.0241 176.143 97.1909 175.862 98.3745 175.862C99.5581 175.862 100.725 176.143 101.779 176.68L104.576 178.274C105.565 178.923 106.388 179.795 106.978 180.82C107.568 181.845 107.909 182.994 107.974 184.175V209.512C107.909 210.693 107.568 211.842 106.978 212.867C106.388 213.892 105.565 214.764 104.576 215.413L73.3242 233.521C72.2674 234.058 71.0983 234.339 69.9124 234.339C68.7266 234.339 67.5575 234.058 66.5006 233.521L63.7041 231.927C62.6992 231.278 61.8631 230.399 61.265 229.363C60.6669 228.328 60.3238 227.164 60.2643 225.97V200.689C60.3261 199.506 60.6675 198.354 61.2606 197.328C61.8536 196.302 62.6815 195.432 63.6761 194.788Z" fill="#FF7800"/>
<path opacity="0.3" d="M63.6761 194.788L94.9697 176.68C96.0241 176.143 97.1909 175.862 98.3745 175.862C99.5581 175.862 100.725 176.143 101.779 176.68L104.576 178.274C105.565 178.923 106.388 179.795 106.978 180.82C107.568 181.845 107.909 182.994 107.974 184.175V209.512C107.909 210.693 107.568 211.842 106.978 212.867C106.388 213.892 105.565 214.764 104.576 215.413L73.3242 233.521C72.2674 234.058 71.0983 234.339 69.9124 234.339C68.7266 234.339 67.5575 234.058 66.5006 233.521L63.7041 231.927C62.6992 231.278 61.8631 230.399 61.265 229.363C60.6669 228.328 60.3238 227.164 60.2643 225.97V200.689C60.3261 199.506 60.6675 198.354 61.2606 197.328C61.8536 196.302 62.6815 195.432 63.6761 194.788Z" fill="white"/>
<path d="M90.0057 235.52L85.3914 226.837L89.1108 216.126V209.568L77.7428 216.182V222.74L82.6368 231.13C82.7108 231.259 82.8232 231.362 82.9584 231.424L90.0057 235.52Z" fill="#FF7800"/>
<path opacity="0.1" d="M90.0057 235.52L85.3914 226.837L89.1108 216.126V209.568L77.7428 216.182V222.74L82.6368 231.13C82.7108 231.259 82.8232 231.362 82.9584 231.424L90.0057 235.52Z" fill="black"/>
<path d="M73.3242 233.521C71.4365 234.611 69.9124 233.731 69.9124 231.549V206.212C69.9775 205.032 70.3204 203.883 70.9133 202.86C71.5062 201.837 72.3322 200.969 73.3242 200.326L104.632 182.148C106.506 181.071 108.03 181.952 108.03 184.119V209.456C107.965 210.637 107.624 211.787 107.034 212.812C106.443 213.836 105.621 214.708 104.632 215.357" fill="#FF7800"/>
<path d="M60.2643 225.97C60.3294 227.153 60.6722 228.303 61.265 229.328C61.8578 230.353 62.6838 231.224 63.6761 231.871L66.4727 233.465C67.4346 233.946 68.4868 234.219 69.5611 234.267C70.6354 234.315 71.7079 234.137 72.709 233.745C71.101 234.346 69.9124 233.437 69.9124 231.493V206.212C69.9535 205.028 70.2951 203.873 70.9052 202.856L61.327 197.333C60.712 198.348 60.3655 199.503 60.3202 200.689L60.2643 225.97Z" fill="#FF7800"/>
<path opacity="0.1" d="M60.2643 225.97C60.3294 227.153 60.6722 228.303 61.265 229.328C61.8578 230.353 62.6838 231.224 63.6761 231.871L66.4727 233.465C67.4346 233.946 68.4868 234.219 69.5611 234.267C70.6354 234.315 71.7079 234.137 72.709 233.745C71.101 234.346 69.9124 233.437 69.9124 231.493V206.212C69.9535 205.028 70.2951 203.873 70.9052 202.856L61.327 197.333C60.712 198.348 60.3655 199.503 60.3202 200.689L60.2643 225.97Z" fill="black"/>
<path d="M84.8741 226.795L89.7541 235.185C89.824 235.305 89.9269 235.402 90.0505 235.465C90.1741 235.529 90.3133 235.555 90.4515 235.542C90.5898 235.529 90.7214 235.476 90.8307 235.391C90.9401 235.305 91.0226 235.19 91.0685 235.059L96.2281 220.167V213.609L84.8741 220.167V226.795Z" fill="#FF7800"/>
<path d="M77.0996 211.666C76.1563 212.273 75.373 213.098 74.8156 214.071C74.2583 215.045 73.9434 216.138 73.8975 217.259C73.8975 219.3 75.2958 220.055 77.0996 219.105C78.0365 218.491 78.815 217.664 79.3715 216.692C79.928 215.72 80.2467 214.63 80.3017 213.511C80.3156 211.47 78.9174 210.589 77.0996 211.666Z" fill="white"/>
<path d="M88.9151 204.828C87.974 205.439 87.1916 206.264 86.6324 207.237C86.0732 208.209 85.7533 209.301 85.699 210.421C85.699 212.463 87.0973 213.288 88.9151 212.267C89.852 211.653 90.6305 210.826 91.187 209.854C91.7435 208.882 92.0622 207.793 92.1172 206.674C92.1172 204.632 90.6769 203.807 88.9151 204.828Z" fill="white"/>
<path d="M100.717 198.004C99.7797 198.618 99.0012 199.445 98.4447 200.417C97.8882 201.389 97.5695 202.479 97.5145 203.598C97.5145 205.639 98.9128 206.394 100.717 205.443C101.66 204.836 102.443 204.011 103.001 203.038C103.558 202.064 103.873 200.971 103.919 199.85C103.919 197.795 102.492 196.97 100.717 198.004Z" fill="white"/>
<path d="M395.503 11.2361L259.562 89.6798C257.8 90.8296 256.334 92.3782 255.282 94.2001C254.23 96.0221 253.622 98.0662 253.507 100.167V401.064C253.507 404.923 256.22 406.489 259.562 404.559L395.503 326.116C397.265 324.966 398.731 323.417 399.783 321.595C400.835 319.773 401.442 317.729 401.557 315.628V14.7318C401.557 10.8725 398.845 9.30642 395.503 11.2361Z" fill="#37474F"/>
<path d="M259.562 89.6798L395.503 11.236C398.495 9.51616 400.97 10.5928 401.459 13.5991C401.183 11.7077 400.51 9.89617 399.483 8.28382C398.456 6.67147 397.1 5.29486 395.503 4.24463L390.567 1.44806C388.691 0.496111 386.616 0 384.512 0C382.408 0 380.334 0.496111 378.458 1.44806L242.517 79.8498C240.728 80.9654 239.255 82.5202 238.238 84.3663L255.283 94.1543C256.306 92.3236 257.779 90.7837 259.562 89.6798Z" fill="#455A64"/>
<path d="M236.462 391.22C236.575 393.321 237.182 395.366 238.234 397.188C239.286 399.01 240.753 400.559 242.517 401.707L247.452 404.503C249.159 405.363 251.028 405.852 252.937 405.936C254.846 406.021 256.751 405.699 258.527 404.993C255.73 406.069 253.507 404.461 253.507 401.008V100.125C253.577 98.0153 254.189 95.9592 255.283 94.1542L238.238 84.3662C237.146 86.1725 236.535 88.2278 236.462 90.3369V391.22Z" fill="#263238"/>
<path d="M262.82 127.154L392.245 52.4713C394.244 51.3107 395.88 52.2476 395.88 54.5687V282.363C395.809 283.623 395.442 284.849 394.811 285.942C394.18 287.035 393.301 287.964 392.245 288.655L262.82 363.324C260.82 364.484 259.184 363.547 259.184 361.226V133.446C259.251 132.185 259.616 130.957 260.247 129.864C260.879 128.77 261.761 127.842 262.82 127.154Z" fill="#FAFAFA"/>
<path d="M326.162 62.1336C325.543 62.5396 325.029 63.0851 324.66 63.7263C324.291 64.3674 324.077 65.0863 324.036 65.825C324.036 67.2233 324.987 67.7407 326.162 67.0555C326.782 66.6512 327.298 66.106 327.667 65.4645C328.036 64.823 328.249 64.1033 328.287 63.3641C328.287 62.0077 327.336 61.4624 326.162 62.1336Z" fill="#263238"/>
<path d="M306.041 83.7791C304.812 84.5957 303.793 85.6891 303.065 86.9714C302.336 88.2537 301.918 89.689 301.846 91.1621C301.846 93.8747 303.747 94.9794 306.041 93.623C307.282 92.815 308.316 91.7252 309.057 90.4423C309.798 89.1594 310.226 87.7196 310.305 86.2401C310.305 83.5274 308.39 82.4228 306.041 83.7791Z" fill="#263238"/>
<path d="M316.458 82.8561C316.458 84.6739 317.856 85.3591 319.492 84.3942L347.458 68.2161C348.321 67.6727 349.044 66.9339 349.568 66.0594C350.093 65.185 350.405 64.1994 350.478 63.1823C350.478 61.3785 349.08 60.6933 347.458 61.6581L319.492 77.8363C318.628 78.3759 317.902 79.1116 317.375 79.9837C316.848 80.8559 316.534 81.8399 316.458 82.8561Z" fill="#263238"/>
<path d="M245.886 136.159C246.881 136.803 247.709 137.673 248.302 138.699C248.895 139.725 249.236 140.876 249.298 142.06C249.298 144.227 247.774 145.108 245.886 144.031C244.896 143.38 244.073 142.506 243.483 141.478C242.893 140.451 242.552 139.3 242.489 138.116C242.517 135.949 244.013 135.082 245.886 136.159Z" fill="#37474F"/>
<path d="M245.886 162.404C246.879 163.051 247.705 163.922 248.297 164.947C248.89 165.972 249.233 167.123 249.298 168.305C249.298 170.486 247.774 171.367 245.886 170.277C244.912 169.632 244.1 168.77 243.515 167.758C242.931 166.746 242.589 165.612 242.517 164.446C242.517 162.209 244.013 161.328 245.886 162.404Z" fill="#37474F"/>
<path d="M244.838 136.676C245.83 137.322 246.656 138.193 247.249 139.219C247.842 140.244 248.184 141.394 248.25 142.577C248.25 144.758 246.725 145.639 244.838 144.548C243.847 143.9 243.022 143.029 242.43 142.004C241.837 140.979 241.493 139.829 241.426 138.648C241.426 136.48 242.964 135.599 244.838 136.676Z" fill="#455A64"/>
<path d="M244.838 162.936C245.83 163.582 246.656 164.453 247.249 165.478C247.842 166.504 248.184 167.654 248.25 168.837C248.25 171.018 246.725 171.899 244.838 170.808C243.847 170.16 243.022 169.289 242.43 168.264C241.837 167.239 241.493 166.089 241.426 164.907C241.426 162.726 242.964 161.845 244.838 162.936Z" fill="#455A64"/>
<path d="M327.532 336.043C325.088 337.639 323.055 339.789 321.597 342.318C320.139 344.847 319.298 347.685 319.142 350.6C319.142 355.969 322.904 358.136 327.532 355.466C329.977 353.866 332.01 351.714 333.468 349.183C334.925 346.651 335.766 343.812 335.922 340.895C335.936 335.526 332.174 333.359 327.532 336.043Z" fill="#263238"/>
<path d="M289.653 360.08C288.464 360.08 288.338 358.682 288.338 358.178V130.398C288.412 129.261 288.746 128.155 289.316 127.168C289.886 126.181 290.676 125.339 291.624 124.707L421.049 50.0246C421.436 49.7935 421.872 49.6592 422.322 49.6331C423.51 49.6331 423.636 50.9474 423.636 51.5207V279.315C423.564 280.451 423.23 281.554 422.66 282.539C422.09 283.524 421.299 284.364 420.35 284.992L290.925 359.674C290.543 359.917 290.105 360.057 289.653 360.08Z" fill="white" stroke="#141414" stroke-miterlimit="10"/>
<path d="M422.322 50.3321C422.853 50.3321 422.937 51.0732 422.937 51.5207V279.315C422.867 280.329 422.566 281.313 422.057 282.193C421.548 283.073 420.844 283.824 420.001 284.391L290.576 359.073C290.297 359.249 289.981 359.354 289.653 359.381C289.121 359.381 289.037 358.626 289.037 358.178V130.398C289.108 129.384 289.409 128.4 289.918 127.52C290.427 126.64 291.13 125.889 291.974 125.322L421.399 50.6397C421.674 50.4583 421.993 50.3523 422.322 50.3321ZM422.322 48.9338C421.748 48.953 421.189 49.1217 420.7 49.4232L291.275 124.106C290.216 124.794 289.334 125.722 288.703 126.816C288.071 127.909 287.706 129.137 287.639 130.398V358.178C287.639 359.828 288.464 360.779 289.653 360.779C290.228 360.754 290.787 360.581 291.275 360.276L420.7 285.607C421.758 284.918 422.639 283.99 423.271 282.896C423.902 281.803 424.267 280.576 424.335 279.315V51.5207C424.335 49.8847 423.51 48.9338 422.322 48.9338Z" fill="#37474F" stroke="#141414" stroke-miterlimit="10"/>
<path d="M424.293 51.5206C424.293 49.1995 422.671 48.2626 420.658 49.4232L291.233 124.106C290.174 124.794 289.292 125.722 288.661 126.816C288.029 127.909 287.664 129.137 287.597 130.398V149.065L424.293 70.1877V51.5206Z" fill="#37474F"/>
<path opacity="0.1" d="M424.293 51.5206C424.293 49.1995 422.671 48.2626 420.658 49.4232L291.233 124.106C290.174 124.794 289.292 125.722 288.661 126.816C288.029 127.909 287.664 129.137 287.597 130.398V149.065L424.293 70.1877V51.5206Z" fill="black"/>
<path d="M301.902 128.412C301.672 128.325 301.424 128.296 301.18 128.328C300.936 128.36 300.704 128.451 300.503 128.594C299.784 129.071 299.186 129.708 298.754 130.455C298.322 131.202 298.069 132.039 298.014 132.901C297.979 133.148 298.011 133.401 298.107 133.632C298.203 133.864 298.36 134.065 298.56 134.215C298.789 134.309 299.04 134.341 299.285 134.307C299.531 134.272 299.763 134.173 299.958 134.019C300.673 133.542 301.268 132.906 301.697 132.162C302.126 131.417 302.378 130.584 302.433 129.726C302.47 129.48 302.44 129.228 302.346 128.997C302.253 128.766 302.099 128.564 301.902 128.412Z" fill="white"/>
<path d="M304.852 123.644L304.544 123.826V123.197C304.544 122.316 303.929 121.952 303.146 122.4L297.273 125.783C296.87 126.045 296.533 126.397 296.29 126.813C296.047 127.228 295.905 127.694 295.875 128.175V128.818L295.553 128.999C295.017 129.348 294.57 129.819 294.249 130.373C293.928 130.927 293.743 131.548 293.708 132.188V137.879C293.708 139.053 294.533 139.543 295.553 138.955L304.824 133.6C305.362 133.249 305.809 132.776 306.13 132.22C306.451 131.663 306.636 131.039 306.67 130.398V124.679C306.698 123.532 305.873 123.057 304.852 123.644ZM300.489 134.942C300.038 135.218 299.522 135.372 298.993 135.39C298.651 135.393 298.313 135.306 298.014 135.138C297.653 134.894 297.362 134.558 297.173 134.165C296.984 133.772 296.903 133.336 296.938 132.901C296.986 131.853 297.286 130.832 297.812 129.924C298.337 129.017 299.073 128.249 299.958 127.685C300.313 127.429 300.732 127.275 301.168 127.241C301.605 127.206 302.042 127.292 302.433 127.489C302.795 127.732 303.085 128.068 303.272 128.462C303.459 128.855 303.537 129.293 303.496 129.727C303.446 130.773 303.148 131.792 302.625 132.699C302.102 133.606 301.37 134.375 300.489 134.942ZM304.684 127.35C304.209 127.615 303.831 127.35 303.831 126.846C303.846 126.549 303.93 126.26 304.079 126.002C304.227 125.744 304.435 125.526 304.684 125.364C305.16 125.084 305.551 125.364 305.551 125.853C305.54 126.148 305.462 126.437 305.321 126.696C305.18 126.956 304.981 127.179 304.74 127.35H304.684Z" fill="white"/>
<path d="M416.855 57.2676L407.808 62.4832C407.283 62.8248 406.847 63.2851 406.533 63.8268C406.22 64.3686 406.039 64.9765 406.004 65.6013V71.1945C406.004 72.3271 406.815 72.8025 407.808 72.2292L413.191 69.125L415.302 71.2364C415.352 71.2824 415.414 71.3131 415.481 71.3246C415.547 71.3361 415.616 71.3281 415.678 71.3015C415.74 71.2748 415.793 71.2307 415.831 71.1745C415.868 71.1183 415.889 71.0524 415.89 70.9847V67.5589L416.855 66.9996C417.387 66.6627 417.832 66.2045 418.152 65.6625C418.473 65.1204 418.661 64.5101 418.7 63.8815V58.2883C418.7 57.1557 417.847 56.6943 416.855 57.2676Z" fill="white"/>
<path d="M305.062 145.737C309.788 143.052 313.619 145.234 313.619 150.631C313.45 153.583 312.586 156.454 311.1 159.009C309.613 161.565 307.544 163.734 305.062 165.341C300.322 168.138 296.49 165.886 296.49 160.447C296.649 157.491 297.509 154.615 299 152.057C300.49 149.499 302.568 147.333 305.062 145.737Z" fill="#37474F"/>
<path d="M322.093 139.151L350.492 122.763C352.17 121.798 353.526 122.483 353.526 124.287C353.452 125.306 353.139 126.293 352.612 127.167C352.085 128.042 351.358 128.78 350.492 129.321L322.093 145.709C320.429 146.674 319.073 145.989 319.073 144.185C319.146 143.168 319.458 142.182 319.982 141.308C320.507 140.433 321.23 139.694 322.093 139.151Z" fill="#37474F"/>
<g opacity="0.7">
<path opacity="0.7" d="M322.093 139.151L350.492 122.763C352.17 121.798 353.526 122.483 353.526 124.287C353.452 125.306 353.139 126.293 352.612 127.167C352.085 128.042 351.358 128.78 350.492 129.321L322.093 145.709C320.429 146.674 319.073 145.989 319.073 144.185C319.146 143.168 319.458 142.182 319.982 141.308C320.507 140.433 321.23 139.694 322.093 139.151Z" fill="white"/>
</g>
<path d="M321.142 150.771L340.62 139.584C341.767 138.927 342.69 139.389 342.69 140.633C342.64 141.331 342.426 142.007 342.067 142.607C341.707 143.207 341.212 143.714 340.62 144.087L321.142 155.273C319.995 155.93 319.073 155.455 319.073 154.21C319.124 153.515 319.338 152.841 319.697 152.244C320.057 151.646 320.552 151.142 321.142 150.771Z" fill="#37474F"/>
<g opacity="0.7">
<path opacity="0.7" d="M321.142 150.771L340.62 139.584C341.767 138.927 342.69 139.389 342.69 140.633C342.64 141.331 342.426 142.007 342.067 142.607C341.707 143.207 341.212 143.714 340.62 144.087L321.142 155.273C319.995 155.93 319.073 155.455 319.073 154.21C319.124 153.515 319.338 152.841 319.697 152.244C320.057 151.646 320.552 151.142 321.142 150.771Z" fill="white"/>
</g>
<path d="M305.062 292.752C309.788 290.068 313.619 292.263 313.619 297.646C313.45 300.598 312.586 303.469 311.1 306.025C309.613 308.581 307.544 310.75 305.062 312.356C300.322 315.153 296.49 312.902 296.49 307.462C296.653 304.507 297.514 301.632 299.004 299.075C300.495 296.518 302.571 294.351 305.062 292.752Z" fill="#37474F"/>
<path d="M322.093 286.181L350.492 269.779C352.17 268.814 353.526 269.499 353.526 271.303C353.452 272.322 353.139 273.308 352.612 274.183C352.085 275.058 351.358 275.796 350.492 276.337L322.093 292.739C320.429 293.703 319.073 293.018 319.073 291.2C319.148 290.186 319.461 289.203 319.985 288.331C320.51 287.459 321.232 286.723 322.093 286.181Z" fill="#37474F"/>
<g opacity="0.7">
<path opacity="0.7" d="M322.093 286.181L350.492 269.779C352.17 268.814 353.526 269.499 353.526 271.303C353.452 272.322 353.139 273.308 352.612 274.183C352.085 275.058 351.358 275.796 350.492 276.337L322.093 292.739C320.429 293.703 319.073 293.018 319.073 291.2C319.148 290.186 319.461 289.203 319.985 288.331C320.51 287.459 321.232 286.723 322.093 286.181Z" fill="white"/>
</g>
<path d="M321.142 297.786L340.62 286.6C341.767 285.943 342.69 286.404 342.69 287.649C342.64 288.347 342.426 289.023 342.067 289.623C341.707 290.223 341.212 290.73 340.62 291.103L321.142 302.289C319.995 302.946 319.073 302.471 319.073 301.24C319.121 300.542 319.334 299.866 319.694 299.266C320.054 298.666 320.55 298.159 321.142 297.786Z" fill="#37474F"/>
<g opacity="0.7">
<path opacity="0.7" d="M321.142 297.786L340.62 286.6C341.767 285.943 342.69 286.404 342.69 287.649C342.64 288.347 342.426 289.023 342.067 289.623C341.707 290.223 341.212 290.73 340.62 291.103L321.142 302.289C319.995 302.946 319.073 302.471 319.073 301.24C319.121 300.542 319.334 299.866 319.694 299.266C320.054 298.666 320.55 298.159 321.142 297.786Z" fill="white"/>
</g>
<path d="M302.405 173.479L409.947 111.395C411.625 110.43 412.981 111.213 412.981 113.143V220.545C412.924 221.598 412.62 222.623 412.092 223.536C411.565 224.45 410.83 225.226 409.947 225.803L302.405 288.25C300.727 289.215 299.385 288.432 299.385 286.502V178.722C299.439 177.672 299.741 176.65 300.266 175.738C300.791 174.827 301.524 174.053 302.405 173.479Z" fill="#F5F5F5"/>
<path d="M341.879 198.075C341.604 197.672 341.225 197.353 340.782 197.151C340.338 196.948 339.848 196.871 339.365 196.927C338.881 196.983 338.421 197.171 338.036 197.469C337.651 197.768 337.355 198.166 337.18 198.62L299.427 270.324V286.502C299.427 288.432 300.825 289.215 302.447 288.25L409.989 226.124C410.872 225.548 411.607 224.772 412.134 223.858C412.662 222.945 412.966 221.92 413.023 220.867V185.071L392.594 148.785C391.462 146.758 389.882 146.884 389.057 149.051L361.86 221.132L341.879 198.075Z" fill="#37474F"/>
<g opacity="0.3">
<path opacity="0.3" d="M341.879 198.075C341.604 197.672 341.225 197.353 340.782 197.151C340.338 196.948 339.848 196.871 339.365 196.927C338.881 196.983 338.421 197.171 338.036 197.469C337.651 197.768 337.355 198.166 337.18 198.62L299.427 270.324V286.502C299.427 288.432 300.825 289.215 302.447 288.25L409.989 226.124C410.872 225.548 411.607 224.772 412.134 223.858C412.662 222.945 412.966 221.92 413.023 220.867V185.071L392.594 148.785C391.462 146.758 389.882 146.884 389.057 149.051L361.86 221.132L341.879 198.075Z" fill="#00564C"/>
</g>
<path d="M310.725 202.535C320.205 197.096 327.91 183.84 327.91 172.934C327.91 167.34 325.896 163.509 322.694 161.747L302.405 173.451C301.524 174.025 300.791 174.799 300.266 175.71C299.741 176.622 299.439 177.644 299.385 178.695V204.059C302.405 205.416 306.362 204.996 310.725 202.535Z" fill="#37474F"/>
<g opacity="0.6">
<path opacity="0.6" d="M310.725 202.535C320.205 197.096 327.91 183.84 327.91 172.934C327.91 167.34 325.896 163.509 322.694 161.747L302.405 173.451C301.524 174.025 300.791 174.799 300.266 175.71C299.741 176.622 299.439 177.644 299.385 178.695V204.059C302.405 205.416 306.362 204.996 310.725 202.535Z" fill="white"/>
</g>
<path d="M302.405 321.054L409.947 258.956C411.625 257.991 412.981 258.676 412.981 260.494C412.905 261.51 412.591 262.494 412.064 263.367C411.537 264.239 410.811 264.974 409.947 265.514L302.405 327.612C300.727 328.577 299.385 327.891 299.385 326.074C299.456 325.058 299.767 324.073 300.292 323.201C300.817 322.328 301.541 321.593 302.405 321.054Z" fill="#37474F"/>
<g opacity="0.6">
<path opacity="0.6" d="M302.405 321.054L409.947 258.956C411.625 257.991 412.981 258.676 412.981 260.494C412.905 261.51 412.591 262.494 412.064 263.367C411.537 264.239 410.811 264.974 409.947 265.514L302.405 327.612C300.727 328.577 299.385 327.891 299.385 326.074C299.456 325.058 299.767 324.073 300.292 323.201C300.817 322.328 301.541 321.593 302.405 321.054Z" fill="white"/>
</g>
<path d="M302.405 334.17L409.947 272.114C411.625 271.149 412.981 271.834 412.981 273.652C412.905 274.668 412.591 275.652 412.064 276.524C411.537 277.396 410.811 278.132 409.947 278.672L302.405 340.77C300.727 341.734 299.385 341.049 299.385 339.231C299.45 338.209 299.759 337.216 300.284 336.336C300.809 335.456 301.536 334.713 302.405 334.17Z" fill="#37474F"/>
<g opacity="0.6">
<path opacity="0.6" d="M302.405 334.17L409.947 272.114C411.625 271.149 412.981 271.834 412.981 273.652C412.905 274.668 412.591 275.652 412.064 276.524C411.537 277.396 410.811 278.132 409.947 278.672L302.405 340.77C300.727 341.734 299.385 341.049 299.385 339.231C299.45 338.209 299.759 337.216 300.284 336.336C300.809 335.456 301.536 334.713 302.405 334.17Z" fill="white"/>
</g>
<path d="M318.989 115.017L395.712 70.761C398.062 69.3627 399.907 70.5093 399.907 73.208C399.835 74.6734 399.417 76.1009 398.688 77.3742C397.959 78.6475 396.939 79.7305 395.712 80.535L319.003 124.665C316.654 126.063 314.808 124.945 314.808 122.288C314.887 120.833 315.307 119.418 316.033 118.155C316.759 116.892 317.772 115.817 318.989 115.017Z" fill="#FAFAFA"/>
<path d="M544.406 198.956L549.845 208.925L541.386 216.182L533.625 203.892L544.406 198.956Z" fill="#F28F8F"/>
<path d="M523.991 176.737C529.388 176.737 535.331 178.75 537.373 182.987L545.762 200.382C545.762 200.382 540.994 207.373 533.43 206.87L523.991 176.737Z" fill="#E0E0E0"/>
<path d="M543.986 210.477C545.566 207.541 545.958 207.401 546.895 206.758C547.832 206.115 553.593 205.262 555.984 205.052C558.78 204.814 559.801 205.332 559.018 207.751C556.864 213.852 554.227 219.771 551.132 225.453C550.377 226.446 550.237 227.369 547.063 227.69C544.112 227.97 540.407 228.138 539.316 228.194C538.226 228.25 536.715 228.543 537.68 225.327C538.929 221.694 540.376 218.133 542.015 214.658C543.231 211.988 543.986 210.477 543.986 210.477Z" fill="#37474F"/>
<path d="M480.98 309.406C479.582 308.707 478.785 310.412 477.568 311.783C476.523 312.791 475.708 314.011 475.177 315.362C474.883 316.97 476.352 319.557 477.974 320.956C479.596 322.354 481.469 323.375 482.057 326.451C482.208 327.862 482.756 329.202 483.637 330.316C484.517 331.429 485.695 332.271 487.034 332.743C490.53 334.253 495.214 333.764 496.822 332.743C498.696 331.527 496.976 330.184 494.347 326.409C490.908 321.487 488.223 318.019 488.223 313.363L480.98 309.406Z" fill="#263238"/>
<path d="M483.735 305.365L480.938 309.56C480.335 310.417 480.096 311.478 480.274 312.511C480.452 313.544 481.033 314.464 481.889 315.069L481.973 315.139C482.833 315.649 483.844 315.843 484.832 315.688C485.82 315.532 486.723 315.036 487.384 314.286L491.803 309.476L483.735 305.365Z" fill="#FFA8A7"/>
<path d="M535.667 224.488C535.848 229.774 534.352 251.125 530.703 260.564C527.053 270.002 524.942 275.875 523.795 277.847C522.649 279.818 489.565 312.007 489.565 312.007C489.565 312.007 483.972 311.601 483.063 306.162C483.063 306.162 496.613 283.118 499.549 278.392C502.485 273.666 512.889 266.423 512.889 266.423L511.938 225.089L535.667 224.488Z" fill="#37474F"/>
<path d="M486.657 219.342C486.657 218.434 489.453 207.988 490.852 203.164L501.101 206.688L498.696 214.295L489.677 223.621C488.721 223.431 487.875 222.881 487.313 222.085C486.751 221.288 486.516 220.307 486.657 219.342Z" fill="#FFA8A7"/>
<path d="M528.378 336.975L535.373 335.385L533.057 325.2L526.062 326.79L528.378 336.975Z" fill="#FFA8A7"/>
<path d="M535.667 224.488H502.108C501.375 229.388 500.954 234.329 500.849 239.282C500.584 253.824 514.119 280.238 514.119 280.238C513.47 286.115 513.762 292.057 514.986 297.842C517.95 309.42 526.033 329.038 526.033 329.038C526.033 329.038 531.108 329.751 533.611 326.829C533.611 326.829 529.137 287.019 527.934 276.826C526.634 265.779 523.278 245.63 523.278 245.63C525.493 243.423 527.501 241.017 529.277 238.443C532.389 234.299 534.565 229.528 535.653 224.46" fill="#37474F"/>
<path d="M512.917 177.03C506.485 178.582 497.717 180.596 495.186 187.559C492.656 194.523 489.006 206.87 489.006 206.87C490.404 209.317 498.165 211.344 500.863 209.932L502.122 205.737V224.446C507.156 229.927 524.69 232.472 535.681 224.446V189.489C535.681 183.896 532.576 177.184 524.005 176.695L512.917 177.03Z" fill="#11B5E4"/>
<path d="M502.122 205.779L505.352 195.614L502.122 210.323V205.779Z" fill="#E0E0E0"/>
<path d="M510.498 148.463C509.921 148.399 509.337 148.466 508.789 148.66C508.242 148.854 507.746 149.169 507.338 149.582C505.939 150.98 506.261 153.539 507.338 159.454L511.532 159.929L510.498 148.463Z" fill="#263238"/>
<path d="M534.981 146.757C535.863 146.767 536.738 146.6 537.554 146.268C538.841 145.527 539.176 146.995 538.463 148.268C537.997 149.179 537.305 149.957 536.453 150.524C535.601 151.092 534.618 151.432 533.597 151.512C533.597 151.33 532.395 148.226 532.395 148.226L534.981 146.757Z" fill="#263238"/>
<path d="M512.469 159.929C511.854 160.307 510.959 159.104 510.19 158.307C509.889 157.96 509.504 157.695 509.073 157.538C508.641 157.381 508.176 157.337 507.722 157.41C507.269 157.482 506.841 157.67 506.48 157.954C506.119 158.239 505.836 158.61 505.659 159.035C504.387 161.719 507.281 165.299 508.987 166.473C509.46 166.887 510.052 167.14 510.678 167.195C511.304 167.25 511.931 167.105 512.469 166.781L512.917 177.058C513.67 178.705 514.819 180.139 516.261 181.234C517.702 182.33 519.392 183.052 521.18 183.337C527.221 184.148 525.977 179.142 523.977 176.737V173.003C525.489 173.323 527.042 173.398 528.577 173.227C529.36 173.017 531.234 170.752 532.451 168.207C535.03 163.112 535.604 157.234 534.059 151.736C531.891 142.535 522.005 142.255 516.119 145.961C510.232 149.666 512.469 159.929 512.469 159.929Z" fill="#FFA8A7"/>
<path d="M512.469 160.978C512.161 160.978 510.973 159.007 510.19 158.307C509.113 157.329 510.498 148.519 510.498 148.519C510.201 147.573 510.141 146.567 510.324 145.592C510.507 144.617 510.926 143.701 511.546 142.926C513.672 140.689 517.783 141.067 520.789 140.969C524.488 140.983 528.151 140.246 531.556 138.801C535.834 136.942 536.156 136.732 536.673 138.606C537.087 140.154 537.138 141.777 536.823 143.348C536.507 144.92 535.834 146.397 534.856 147.666L533.457 149.932C533.457 149.932 532.157 151.022 528.172 151.512C524.187 152.001 517.391 149.848 516.538 149.736C515.378 149.582 515.14 150.701 514.511 153.763C513.979 156.406 513.532 160.964 512.469 160.978Z" fill="#263238"/>
<path d="M510.512 149.163L506.736 147.135C506.857 146.889 507.025 146.668 507.231 146.487C507.437 146.306 507.677 146.167 507.937 146.078C508.197 145.99 508.472 145.954 508.745 145.972C509.019 145.99 509.287 146.062 509.533 146.184C510.051 146.456 510.443 146.919 510.626 147.475C510.809 148.031 510.768 148.636 510.512 149.163Z" fill="#263238"/>
<path d="M523.977 173.003C521.404 172.51 518.882 171.785 516.44 170.836C515.297 170.232 514.357 169.303 513.742 168.165C514.037 169.307 514.56 170.377 515.28 171.311C516.678 173.143 523.977 174.486 523.977 174.486V173.003Z" fill="#F28F8F"/>
<path d="M524.159 159.734C524.163 160.035 524.047 160.326 523.838 160.544C523.628 160.761 523.342 160.887 523.04 160.894C522.89 160.891 522.741 160.857 522.604 160.796C522.466 160.735 522.341 160.648 522.238 160.539C522.134 160.43 522.052 160.301 521.998 160.161C521.944 160.02 521.918 159.87 521.922 159.72C521.918 159.418 522.033 159.127 522.243 158.91C522.452 158.692 522.739 158.566 523.04 158.559C523.191 158.563 523.339 158.596 523.477 158.657C523.615 158.718 523.739 158.806 523.843 158.915C523.947 159.024 524.028 159.152 524.082 159.293C524.137 159.433 524.163 159.583 524.159 159.734Z" fill="#263238"/>
<path d="M522.97 155.497L520.579 156.895C520.488 156.733 520.431 156.554 520.41 156.37C520.389 156.185 520.405 155.998 520.457 155.82C520.509 155.642 520.596 155.475 520.713 155.331C520.83 155.187 520.975 155.067 521.139 154.979C521.453 154.818 521.816 154.782 522.156 154.878C522.496 154.974 522.787 155.195 522.97 155.497Z" fill="#263238"/>
<path d="M523.474 167.242L526.033 168.207C525.906 168.543 525.656 168.817 525.333 168.973C525.01 169.129 524.64 169.155 524.299 169.046C524.126 168.982 523.967 168.885 523.832 168.76C523.697 168.634 523.588 168.484 523.511 168.316C523.434 168.148 523.392 167.967 523.385 167.783C523.379 167.599 523.409 167.415 523.474 167.242Z" fill="#F28F8F"/>
<path d="M534.143 156.434L531.961 154.756C532.18 154.473 532.5 154.284 532.854 154.23C533.207 154.175 533.569 154.258 533.863 154.462C534.012 154.572 534.137 154.711 534.232 154.87C534.327 155.029 534.389 155.206 534.415 155.389C534.441 155.573 534.431 155.76 534.384 155.939C534.337 156.118 534.255 156.286 534.143 156.434Z" fill="#263238"/>
<path d="M533.471 159.412C533.475 159.714 533.36 160.005 533.15 160.222C532.941 160.439 532.654 160.565 532.353 160.572C532.202 160.569 532.054 160.536 531.916 160.475C531.778 160.414 531.654 160.326 531.55 160.217C531.446 160.108 531.365 159.979 531.311 159.839C531.256 159.698 531.23 159.548 531.234 159.398C531.23 159.096 531.346 158.805 531.555 158.588C531.764 158.371 532.051 158.245 532.353 158.237C532.656 158.248 532.942 158.377 533.151 158.597C533.36 158.816 533.475 159.109 533.471 159.412Z" fill="#263238"/>
<path d="M528.2 159.272L527.151 165.928L530.829 165.495L528.2 159.272Z" fill="#F28F8F"/>
<path d="M534.576 331.988L534.352 330.981C535.079 331.121 538.225 336.337 541.344 338.602C544.755 341.077 547.706 342.545 549.23 343.664C551.271 345.16 548.321 348.222 543.301 348.502C540.812 348.628 536.31 347.872 534.912 346.544C533.513 345.216 532.507 343.02 531.388 342.07C530.269 341.119 528.046 340.28 527.277 339.063C526.865 337.855 526.718 336.572 526.843 335.302C526.843 333.988 526.941 332.505 527.389 332.575L527.557 333.33C528.853 333.992 530.296 334.314 531.751 334.267C532.968 334.211 535.163 333.946 534.576 331.988Z" fill="#263238"/>
<path d="M527.067 270.058C527.067 270.058 524.089 248.902 523.292 245.63C525.684 244.323 527.91 242.732 529.92 240.89C528.533 242.873 527.02 244.765 525.389 246.553L527.067 270.058Z" fill="#263238"/>
<path d="M509.099 269.317C509.099 269.317 512.679 278.224 514.133 280.196C514.133 280.196 513.77 286.991 513.811 288.362L511.938 289.997C511.889 286.923 512.17 283.853 512.777 280.839C511.133 277.144 509.9 273.281 509.099 269.317Z" fill="#263238"/>
<path d="M498.738 214.295C498.738 214.295 526.941 217.315 530.255 216.294C533.569 215.274 538.016 211.988 540.351 210.589C542.686 209.191 544.462 209.107 544.462 209.681C544.462 210.254 542.42 213.372 541.959 214.672C541.498 215.973 544.154 215.973 547.664 215.162C551.174 214.351 552.572 212.365 553.481 213.512C554.39 214.658 551.537 220.503 545.72 222.699C539.903 224.894 535.583 223.426 530.773 223.635C525.963 223.845 496.333 225.733 489.663 223.635C489.487 222.566 489.609 221.469 490.016 220.465C490.423 219.461 491.099 218.589 491.97 217.944C493.986 216.327 496.279 215.09 498.738 214.295Z" fill="#FFA8A7"/>
<path d="M342.382 349.019C342.452 348.11 344.172 338.322 345.346 332.841L356.854 336.365L355.008 344.041L345.444 353.298C344.481 353.117 343.624 352.571 343.054 351.773C342.483 350.976 342.243 349.989 342.382 349.019Z" fill="#FFA8A7"/>
<path d="M367.607 266.157H373.2C377.328 266.157 381.286 267.796 384.205 270.715C387.123 273.634 388.763 277.592 388.763 281.72V321.375H352.044V281.72C352.044 277.592 353.684 273.634 356.602 270.715C359.521 267.796 363.479 266.157 367.607 266.157Z" fill="#263238"/>
<path d="M398.048 328.45L403.487 338.42L395.013 345.663L387.267 333.372L398.048 328.45Z" fill="#F28F8F"/>
<path d="M377.633 306.218C383.03 306.218 388.973 308.231 391.014 312.468L399.404 329.862C399.404 329.862 394.636 336.854 387.071 336.365L377.633 306.218Z" fill="#455A64"/>
<path d="M381.995 478.724C383.853 481.208 385.941 483.512 388.232 485.603C388.599 485.899 388.892 486.277 389.085 486.708C389.322 487.435 389.63 489.183 386.4 489.896C384.763 490.255 383.067 490.257 381.429 489.903C379.791 489.548 378.248 488.845 376.906 487.841C374.542 485.939 374.822 482.597 372.641 480.402C371.019 478.794 368.824 478.164 367.607 476.207C366.754 474.809 367.216 473.145 367.985 471.089C368.754 469.034 369.299 467.16 370.04 467.426L369.788 468.46C370.557 470.096 375.381 471.131 377.745 470.348C379.016 473.211 380.435 476.007 381.995 478.724Z" fill="#263238"/>
<path d="M383.897 481.129C383.24 480.36 382.597 479.577 381.995 478.724C380.759 476.665 379.652 474.531 378.681 472.334C378.051 471.025 377.941 469.525 378.374 468.139L379.968 462.755L371.578 460.826L369.76 468.362C369.369 470.082 370.613 471.788 372.892 474.277C375.172 476.766 377.8 482.247 379.884 483.8C381.967 485.352 383.673 485.505 384.736 484.974C385.799 484.443 386.064 483.953 383.897 481.129Z" fill="#FFA8A7"/>
<path d="M359.427 483.464V482.275C359.902 483.674 362.056 489.63 365.328 492.623C367.943 494.986 371.494 497.74 372.389 500.383C373.284 503.026 367.453 504.061 365.02 503.627C361.774 503.083 358.796 501.486 356.547 499.083C355.148 497.363 354.253 495.321 353.247 493.965C352.24 492.609 349.947 491.168 349.415 489.546C349.247 488.085 349.405 486.605 349.877 485.212C350.268 483.813 350.674 482.149 351.177 482.275V483.254C352.374 484.187 353.855 484.68 355.372 484.652C356.519 484.652 359.441 484.387 359.427 483.464Z" fill="#263238"/>
<path d="M367.691 494.706L365.328 492.609C363.136 490.287 361.426 487.554 360.294 484.569C359.721 483.19 359.427 481.713 359.427 480.22V475.508H351.177V483.17V483.38C351.569 485.1 355.372 489.658 357.511 492.637C359.266 495.196 361.941 496.98 364.978 497.615C368.124 498.034 369.76 497.055 367.691 494.706Z" fill="#FFA8A7"/>
<path d="M352.813 355.157C346.423 369.14 353.051 418.374 353.051 418.374C352.855 420.653 350.254 425.114 349.303 435.153C348.157 446.955 351.093 476.57 351.093 476.57C352.356 477.312 353.783 477.73 355.246 477.789C356.709 477.847 358.165 477.544 359.483 476.906C359.483 476.906 367.355 432.287 368.838 420.555L373.564 382.913L380.555 419.646C378.684 422.525 377.137 425.601 375.941 428.819C374.277 434.007 370.907 463.566 370.907 463.566C372.044 464.606 373.404 465.372 374.882 465.806C376.36 466.239 377.918 466.33 379.437 466.069C379.437 466.069 395.587 425.519 396.314 417.241C396.747 412.277 389.504 353.172 389.504 353.172L352.813 355.157Z" fill="#37474F"/>
<path d="M373.508 382.857L374.626 374.775C374.626 374.775 383.422 372.957 387.407 369.182C384.655 372.408 381.057 374.8 377.017 376.09L375.843 383.892L377.241 401.972L373.508 382.857Z" fill="#263238"/>
<path d="M364.167 306.595C361.813 307.168 359.617 308.262 357.741 309.796C355.866 311.33 354.358 313.266 353.331 315.46C351.821 318.797 351.68 322.592 352.939 326.031L358.574 342.573C358.574 342.573 355.903 349.047 352.785 355.157C367.146 363.17 385.058 358.961 389.378 353.116C389.56 351.871 389.308 346.278 389.658 339.93C390.022 333.148 390.958 325.486 389.896 321.305C387.91 313.517 384.205 306.218 376.836 306.218L364.167 306.595Z" fill="#F03E3D"/>
<path d="M361.972 306.595C357.078 307.28 349.891 308.273 347.402 319.907C344.913 331.541 344.172 335.805 344.172 335.805C345.768 337.371 347.669 338.592 349.757 339.39C351.845 340.189 354.075 340.549 356.309 340.448L358.84 331.499L361.972 306.595Z" fill="#455A64"/>
<path d="M364.755 316.411C363.91 316.411 363.073 316.245 362.293 315.922C361.513 315.598 360.804 315.125 360.206 314.527C359.609 313.93 359.135 313.221 358.812 312.441C358.489 311.66 358.322 310.824 358.322 309.979V291.256H364.755V316.411Z" fill="#263238"/>
<path d="M382.736 273.582C384.68 274.728 387.071 279.608 386.833 289.83C386.638 298.499 383.827 300.652 382.415 301.268C381.003 301.883 378.29 301.505 375.647 301.058V306.259C375.647 306.259 379.297 310.454 379.073 312.901C378.849 315.348 373.787 315.852 370.362 313.516C368.155 311.916 366.26 309.926 364.768 307.644V295.059C364.49 295.4 364.147 295.682 363.758 295.89C363.37 296.097 362.944 296.225 362.506 296.267C362.068 296.308 361.625 296.263 361.205 296.132C360.784 296.002 360.394 295.789 360.056 295.507C357.134 293.563 357.022 288.767 358.728 287.117C360.434 285.467 364.083 285.942 364.768 288.319C368.224 288.168 371.588 287.159 374.556 285.383C376.757 284.205 378.647 282.52 380.069 280.468C381.491 278.416 382.405 276.056 382.736 273.582Z" fill="#FFA8A7"/>
<path d="M377.157 287.662C377.16 287.876 377.099 288.086 376.983 288.266C376.867 288.446 376.701 288.587 376.506 288.673C376.31 288.759 376.093 288.786 375.882 288.75C375.671 288.714 375.476 288.616 375.32 288.47C375.164 288.324 375.055 288.135 375.005 287.927C374.956 287.718 374.969 287.5 375.043 287.3C375.116 287.099 375.247 286.924 375.419 286.797C375.591 286.67 375.797 286.597 376.011 286.586C376.157 286.58 376.303 286.604 376.44 286.655C376.577 286.706 376.702 286.784 376.809 286.884C376.916 286.984 377.001 287.105 377.061 287.238C377.121 287.372 377.154 287.516 377.157 287.662Z" fill="#263238"/>
<path d="M377.451 295.003L379.982 295.814C379.937 295.985 379.858 296.144 379.75 296.283C379.641 296.422 379.506 296.537 379.352 296.622C379.197 296.707 379.027 296.76 378.852 296.777C378.677 296.795 378.5 296.776 378.332 296.723C377.992 296.605 377.711 296.36 377.546 296.04C377.382 295.719 377.348 295.348 377.451 295.003Z" fill="#F28F8F"/>
<path d="M386.092 284.306L383.897 282.782C383.989 282.633 384.111 282.505 384.254 282.404C384.398 282.304 384.56 282.234 384.732 282.199C384.903 282.164 385.08 282.164 385.251 282.199C385.423 282.234 385.585 282.304 385.729 282.405C386.023 282.614 386.225 282.928 386.293 283.283C386.361 283.637 386.289 284.004 386.092 284.306Z" fill="#263238"/>
<path d="M385.589 286.865C385.608 287.16 385.51 287.45 385.316 287.673C385.123 287.895 384.849 288.032 384.554 288.054C384.261 288.058 383.977 287.948 383.763 287.747C383.55 287.546 383.422 287.27 383.408 286.977C383.4 286.834 383.421 286.691 383.469 286.555C383.517 286.42 383.591 286.296 383.687 286.19C383.784 286.083 383.9 285.997 384.029 285.935C384.159 285.873 384.299 285.838 384.442 285.831C384.586 285.823 384.729 285.844 384.864 285.892C384.999 285.94 385.123 286.014 385.23 286.11C385.336 286.207 385.423 286.323 385.484 286.452C385.546 286.582 385.582 286.722 385.589 286.865Z" fill="#263238"/>
<path d="M380.443 286.25L380.625 292.808L384.079 291.731L380.443 286.25Z" fill="#F28F8F"/>
<path d="M375.647 301.058C372.851 300.694 367.118 299.044 366.223 296.779C366.579 297.929 367.282 298.94 368.236 299.673C369.942 301.142 375.647 302.806 375.647 302.806V301.058Z" fill="#F28F8F"/>
<path d="M397.614 339.958C399.194 337.022 399.586 336.896 400.537 336.253C401.487 335.609 407.234 334.742 409.625 334.533C412.422 334.295 413.443 334.812 412.66 337.245C410.48 343.34 407.824 349.255 404.718 354.934C403.962 355.94 403.809 356.863 400.648 357.171C397.488 357.479 393.979 357.618 392.888 357.688C391.797 357.758 390.287 358.024 391.266 354.808C392.513 351.176 393.955 347.615 395.587 344.139C396.859 341.496 397.614 339.958 397.614 339.958Z" fill="#37474F"/>
<path d="M355.008 344.097C355.008 344.097 380.583 346.796 383.897 345.775C387.211 344.754 391.657 341.44 394.049 340.07C396.44 338.7 398.159 338.588 398.159 339.147C398.159 339.707 396.118 342.853 395.643 344.139C395.167 345.426 397.852 345.439 401.348 344.628C404.843 343.817 406.256 341.832 407.178 342.979C408.101 344.125 405.235 349.97 399.418 352.165C393.601 354.361 389.28 352.906 384.47 353.102C379.66 353.298 352.114 355.451 345.444 353.354C345.268 352.285 345.39 351.188 345.797 350.184C346.204 349.179 346.88 348.307 347.751 347.663C349.908 346.002 352.376 344.789 355.008 344.097Z" fill="#FFA8A7"/>
<path d="M356.854 337.525C357.951 334.553 358.885 331.524 359.651 328.45C359.651 328.45 359.189 335.204 357.288 338.825L356.854 337.525Z" fill="#37474F"/>
<path d="M149.922 254.369L145.378 264.185L153.837 271.428L161.15 259.082L149.922 254.369Z" fill="#F28F8F"/>
<path d="M170.785 231.913C165.387 231.913 159.445 233.941 157.403 238.163C155.362 242.386 149.013 255.572 149.013 255.572C149.013 255.572 153.782 262.563 161.346 262.06L170.785 231.913Z" fill="#37474F"/>
<path d="M194.192 387.668H186.725V398.532H194.192V387.668Z" fill="#FFA8A7"/>
<path d="M167.94 374.225L160.477 374.482L160.851 385.34L168.313 385.084L167.94 374.225Z" fill="#FFA8A7"/>
<path d="M193.688 281.594C193.688 288.725 194.611 334.813 194.611 334.813C194.793 336.854 196.709 340.644 196.289 348.516C195.73 359.213 194.807 388.926 194.807 388.926C194.807 388.926 191.311 392.394 186.417 388.926C186.417 388.926 179.65 348.544 178.321 337.945C177.147 328.702 175.175 303.575 175.175 303.575L168.254 333.149C168.254 333.149 169.47 340.14 169.75 345.006C170.03 349.872 168.477 378.271 168.477 378.271C167.268 379.026 165.881 379.452 164.456 379.506C163.031 379.56 161.617 379.24 160.353 378.579C160.353 378.579 154.369 337.162 153.6 332.729C152.831 328.297 158.843 281.594 158.843 281.594H193.688Z" fill="#37474F"/>
<path d="M182.46 232.249H182.572C185.775 233.054 188.617 234.908 190.644 237.516C192.671 240.123 193.768 243.334 193.758 246.637V281.594C188.529 287.285 170.295 289.984 158.801 281.594V245.239C158.801 239.436 162.031 232.444 170.938 231.927L182.46 232.249Z" fill="#02897A"/>
<path d="M184.977 202.507C185.577 202.44 186.184 202.51 186.753 202.711C187.322 202.912 187.839 203.239 188.263 203.668C189.661 205.066 189.382 207.793 188.263 213.931L183.901 214.435L184.977 202.507Z" fill="#263238"/>
<path d="M159.514 200.801C158.578 200.804 157.651 200.619 156.788 200.256C155.39 199.487 155.096 201.011 155.823 202.326C156.31 203.274 157.033 204.082 157.921 204.672C158.81 205.262 159.835 205.615 160.899 205.695C160.899 205.514 162.143 202.298 162.143 202.298L159.514 200.801Z" fill="#263238"/>
<path d="M182.922 214.434C183.579 214.826 184.502 213.581 185.299 212.743C185.611 212.379 186.012 212.102 186.462 211.937C186.913 211.773 187.398 211.727 187.871 211.805C188.344 211.882 188.789 212.079 189.164 212.378C189.539 212.677 189.83 213.067 190.011 213.512C191.409 216.308 188.319 220.028 186.557 221.244C186.063 221.675 185.445 221.938 184.792 221.996C184.139 222.053 183.484 221.903 182.922 221.566L182.46 232.249C181.677 233.962 180.482 235.456 178.982 236.595C177.481 237.735 175.722 238.485 173.861 238.779C167.583 239.632 168.883 234.458 170.938 231.913V228.026C169.373 228.366 167.763 228.451 166.17 228.277C165.345 228.054 163.374 225.691 162.129 223.048C160.731 220.084 158.368 214.826 160.465 205.919C162.717 196.341 173.05 196.047 179.118 199.906C185.187 203.766 182.922 214.434 182.922 214.434Z" fill="#FFA8A7"/>
<path d="M182.922 215.525C183.257 215.525 184.488 213.484 185.299 212.729C186.417 211.708 184.977 202.493 184.977 202.493C184.977 202.493 186.11 199.011 183.9 196.69C181.691 194.369 177.398 194.761 174.266 194.649C170.423 194.672 166.615 193.906 163.08 192.398C158.634 190.468 158.298 190.244 157.753 192.188C157.321 193.798 157.267 195.486 157.594 197.121C157.922 198.755 158.622 200.292 159.64 201.612L161.85 202.423C161.85 202.423 163.038 203.486 167.191 203.989C171.021 204.273 174.868 204.203 178.685 203.78C179.887 203.612 180.083 204.772 180.796 207.974C181.356 210.771 181.831 215.511 182.922 215.525Z" fill="#263238"/>
<path d="M184.963 203.234L188.892 201.123C188.768 200.859 188.591 200.623 188.372 200.429C188.153 200.236 187.898 200.089 187.62 199.997C187.343 199.906 187.05 199.871 186.759 199.897C186.468 199.922 186.185 200.006 185.928 200.144C185.402 200.437 185.008 200.921 184.828 201.496C184.649 202.071 184.697 202.694 184.963 203.234Z" fill="#263238"/>
<path d="M170.952 228.026C173.632 227.523 176.258 226.769 178.797 225.775C179.991 225.148 180.967 224.173 181.593 222.978C181.288 224.165 180.746 225.278 179.999 226.25C178.517 228.152 170.938 229.55 170.938 229.55L170.952 228.026Z" fill="#F28F8F"/>
<path d="M172.351 212.98C172.356 213.212 172.43 213.437 172.563 213.627C172.696 213.816 172.882 213.962 173.098 214.047C173.314 214.131 173.55 214.149 173.776 214.1C174.003 214.05 174.209 213.935 174.37 213.768C174.531 213.601 174.639 213.391 174.68 213.163C174.722 212.935 174.695 212.7 174.603 212.487C174.512 212.274 174.359 212.093 174.165 211.967C173.97 211.841 173.743 211.775 173.511 211.778C173.198 211.785 172.901 211.916 172.684 212.141C172.467 212.366 172.347 212.668 172.351 212.98Z" fill="#263238"/>
<path d="M173.581 208.59L176.084 209.988C176.258 209.645 176.293 209.248 176.184 208.879C176.075 208.51 175.829 208.196 175.497 208.003C175.333 207.913 175.153 207.857 174.967 207.838C174.781 207.819 174.594 207.837 174.415 207.892C174.237 207.947 174.071 208.037 173.928 208.157C173.784 208.276 173.667 208.424 173.581 208.59Z" fill="#263238"/>
<path d="M172.435 220.88L169.778 221.887C169.836 222.065 169.929 222.23 170.052 222.371C170.175 222.512 170.325 222.627 170.493 222.709C170.662 222.791 170.845 222.839 171.032 222.849C171.218 222.859 171.406 222.832 171.582 222.768C171.942 222.627 172.233 222.351 172.393 221.998C172.552 221.645 172.567 221.244 172.435 220.88Z" fill="#F28F8F"/>
<path d="M161.961 209.554L164.213 207.793C164.104 207.64 163.967 207.51 163.807 207.411C163.648 207.313 163.47 207.247 163.285 207.218C163.1 207.189 162.911 207.198 162.729 207.244C162.547 207.29 162.377 207.372 162.227 207.485C161.925 207.73 161.729 208.081 161.679 208.466C161.63 208.852 161.731 209.242 161.961 209.554Z" fill="#263238"/>
<path d="M162.661 212.659C162.657 212.972 162.777 213.273 162.994 213.498C163.211 213.724 163.508 213.854 163.821 213.861C164.138 213.854 164.438 213.722 164.658 213.494C164.878 213.267 164.999 212.961 164.996 212.645C165.014 212.481 164.997 212.315 164.946 212.158C164.896 212 164.813 211.856 164.703 211.733C164.593 211.61 164.458 211.512 164.307 211.444C164.156 211.377 163.993 211.342 163.828 211.342C163.663 211.342 163.5 211.377 163.349 211.444C163.199 211.512 163.064 211.61 162.954 211.733C162.843 211.856 162.76 212 162.71 212.158C162.659 212.315 162.643 212.481 162.661 212.645V212.659Z" fill="#263238"/>
<path d="M168.603 211.554L168.212 218.559L164.562 217.315L168.603 211.554Z" fill="#F28F8F"/>
<path d="M186.725 394.841V393.764C186.012 394.072 184.348 400.406 181.398 403.105C179.034 405.244 175.804 407.733 175.007 410.096C174.21 412.459 179.482 413.956 181.677 413.564C184.236 413.117 188.669 411.313 189.773 409.649C190.878 407.985 191.409 405.524 192.304 404.293C193.199 403.063 195.296 401.707 195.786 400.294C195.93 398.973 195.782 397.637 195.352 396.379C195.003 395.065 194.639 393.583 194.192 393.736C194.192 393.89 194.192 394.547 194.192 394.547C193.13 395.385 191.811 395.83 190.458 395.806C189.382 395.89 186.711 395.68 186.725 394.841Z" fill="#263238"/>
<path d="M160.787 383.026C160.395 383.026 160.074 383.585 159.221 384.508C157.948 385.803 156.463 386.872 154.83 387.668C152.034 389.066 146.608 391.22 144.147 392.324C142.623 393.023 142.749 394.869 144.273 395.932C145.797 396.995 149.698 397.75 154.299 396.715C156.802 396.156 160.074 393.848 162.129 393.918C164.185 393.988 168.058 394.016 169.582 392.967C171.106 391.919 170.505 389.668 170.071 387.738C169.638 385.808 168.925 382.424 168.226 382.564V383.221C167.331 384.62 162.758 385.137 160.787 384.144V383.026Z" fill="#263238"/>
<path d="M150.803 265.668C149.223 262.717 148.832 262.591 147.881 261.948C146.93 261.305 141.183 260.438 138.792 260.242C135.995 260.005 134.975 260.522 135.758 262.941C137.923 269.037 140.56 274.956 143.644 280.643C144.399 281.636 144.553 282.559 147.713 282.866C150.873 283.174 154.383 283.314 155.473 283.384C156.564 283.454 158.074 283.719 157.095 280.503C155.846 276.873 154.404 273.311 152.775 269.834C151.628 267.192 150.803 265.668 150.803 265.668Z" fill="#37474F"/>
<path d="M208.119 274.533C208.049 273.61 205.322 263.179 203.924 258.354L193.688 261.878L196.094 269.471L205.098 278.797C206.053 278.61 206.899 278.063 207.461 277.269C208.024 276.475 208.259 275.495 208.119 274.533Z" fill="#FFA8A7"/>
<path d="M196.052 269.471C196.052 269.471 167.834 272.491 164.52 271.47C161.206 270.45 156.76 267.136 154.369 265.765C151.978 264.395 150.258 264.283 150.258 264.857C150.258 265.43 152.299 268.548 152.775 269.834C153.25 271.121 150.565 271.135 147.07 270.324C143.574 269.513 142.162 267.527 141.239 268.674C140.316 269.82 143.182 275.665 148.999 277.861C154.816 280.056 159.137 278.602 163.947 278.797C168.757 278.993 198.387 280.895 205.057 278.797C205.233 277.73 205.112 276.635 204.704 275.633C204.297 274.631 203.62 273.762 202.749 273.12C200.752 271.514 198.484 270.278 196.052 269.471Z" fill="#FFA8A7"/>
<path d="M184.823 233.046C189.256 234.514 198.051 235.255 200.89 244.847C203.728 254.439 205.154 260.662 205.154 260.662C203.476 262.899 196.765 265.486 193.688 264.521L184.823 233.046Z" fill="#455A64"/>
<path d="M193.689 264.521L190.654 253.754L193.689 268.912V264.521Z" fill="#37474F"/>
<path d="M130.039 287.145C129.899 287.327 128.71 289.299 128.71 289.299L123.243 297.129L117.916 305.113C117.748 305.356 117.507 305.54 117.228 305.638C116.949 305.736 116.647 305.743 116.363 305.658L116 305.533C114.154 304.847 111.386 303.687 107.708 301.995C104.758 300.597 104.911 300.191 104.911 299.688C104.873 299.288 104.873 298.885 104.911 298.485C105.513 297.339 107.372 294.472 109.875 290.851C114.322 284.391 116.461 281.524 117.79 279.664C117.979 279.393 118.259 279.198 118.579 279.113C118.899 279.029 119.239 279.061 119.538 279.203C121.929 280 126.781 282.083 129.326 283.118H129.437C130.808 283.859 130.053 287.089 130.039 287.145Z" fill="#37474F"/>
<path d="M130.178 286.893L128.78 289.298L123.439 297.283L117.846 305.071C117.678 305.314 117.437 305.498 117.158 305.596C116.879 305.694 116.577 305.701 116.293 305.616L115.93 305.491C114.084 304.805 111.316 303.645 107.638 301.953C104.688 300.555 104.842 300.149 104.842 299.646C104.803 299.246 104.803 298.843 104.842 298.443C107.638 299.674 116.489 303.869 116.783 303.715C117.482 303.379 123.481 293.759 126.669 288.851C128.263 286.404 128.976 285.369 129.465 284.53C129.555 284.43 129.622 284.312 129.661 284.183C129.701 284.055 129.711 283.919 129.693 283.786C129.674 283.652 129.627 283.525 129.553 283.412C129.48 283.299 129.383 283.204 129.27 283.132H129.158C129.472 283.298 129.743 283.534 129.949 283.823C130.155 284.112 130.291 284.445 130.346 284.796C130.499 285.131 130.563 285.5 130.534 285.866C130.505 286.233 130.382 286.587 130.178 286.893Z" fill="#37474F"/>
<path opacity="0.1" d="M130.178 286.893L128.78 289.298L123.439 297.283L117.846 305.071C117.678 305.314 117.437 305.498 117.158 305.596C116.879 305.694 116.577 305.701 116.293 305.616L115.93 305.491C114.084 304.805 111.316 303.645 107.638 301.953C104.688 300.555 104.842 300.149 104.842 299.646C104.803 299.246 104.803 298.843 104.842 298.443C107.638 299.674 116.489 303.869 116.783 303.715C117.482 303.379 123.481 293.759 126.669 288.851C128.263 286.404 128.976 285.369 129.465 284.53C129.555 284.43 129.622 284.312 129.661 284.183C129.701 284.055 129.711 283.919 129.693 283.786C129.674 283.652 129.627 283.525 129.553 283.412C129.48 283.299 129.383 283.204 129.27 283.132H129.158C129.472 283.298 129.743 283.534 129.949 283.823C130.155 284.112 130.291 284.445 130.346 284.796C130.499 285.131 130.563 285.5 130.534 285.866C130.505 286.233 130.382 286.587 130.178 286.893Z" fill="black"/>
<path d="M117.86 281.496L127.676 285.607L117.216 301.156L107.456 296.667L117.86 281.496Z" fill="#FAFAFA"/>
<path d="M115.105 335.679C117.79 334.91 121.845 324.927 124.893 313.601C127.941 302.274 129.549 299.772 129.647 296.206C129.745 292.64 129.493 287.956 129.493 287.956L124.18 295.717C123.949 294.219 123.477 292.77 122.782 291.424C122.096 290.026 120.81 288.921 119.761 289.76C119.202 290.207 120.684 292.123 120.363 296.402C120.336 298.107 120.505 299.81 120.866 301.477L110.994 325.388L115.105 335.679Z" fill="#FFA8A7"/>
<path d="M75.3797 286.097C72.2615 285.216 69.6188 286.88 68.1506 291.843C65.5769 301.189 63.7073 310.715 62.5574 320.34C62.138 323.794 61.6625 327.989 64.9625 328.311C67.4794 328.562 74.7505 327.164 76.0229 325.906C77.7288 324.256 77.4212 317.6 77.4212 317.6H73.6458C73.6458 317.6 74.4568 312.356 74.6945 310.762C75.5335 305.407 76.778 298.653 76.778 298.653L75.3797 286.097Z" fill="#F28F8F"/>
<path d="M93.6833 281.188L92.4108 292.389L81.3644 293.675L82.9584 278.811L93.6833 281.188Z" fill="#FFA8A7"/>
<path d="M70.0383 264.843C70.9472 254.495 76.5543 250.244 80.889 249.21C89.6422 247.154 98.2836 250.091 101.863 256.201C102.683 258.115 103.105 260.174 103.105 262.256C103.105 264.337 102.683 266.397 101.863 268.31C99.9615 272.645 70.0802 264.815 70.0802 264.815" fill="#263238"/>
<path d="M102.409 270.408C102.409 270.408 103.989 274.672 103.569 274.994C102.91 275.232 102.215 275.355 101.514 275.358L102.409 270.408Z" fill="#FFA8A7"/>
<path d="M97.6963 256.928C99.7797 258.718 103.289 261.962 102.353 270.911C101.318 280.168 99.0806 282.671 97.5705 283.566C96.5637 284.167 92.1032 283.118 90.0337 281.902C87.4609 280.378 81.7559 276.448 80.022 271.149C77.9665 264.913 79.0013 257.474 83.5037 255.53C85.7947 254.544 88.2982 254.156 90.7802 254.4C93.2622 254.645 95.6417 255.515 97.6963 256.928Z" fill="#FFA8A7"/>
<path d="M100.269 257.166C100.314 259.641 99.8003 262.094 98.7666 264.343C97.7329 266.591 96.2057 268.579 94.2985 270.156C94.2985 270.156 92.9981 266.786 90.1036 267.555C87.2092 268.324 87.307 272.142 89.3765 274.211C89.913 274.803 90.6073 275.229 91.3776 275.439C92.1479 275.65 92.9624 275.636 93.7252 275.4C93.3125 278.045 92.0743 280.492 90.1875 282.391C87.1765 283.084 84.0312 282.913 81.1127 281.899C78.1942 280.885 75.6207 279.068 73.6878 276.658C67.2976 268.981 69.1853 256.788 79.169 253.195C82.6991 251.778 86.5602 251.4 90.2982 252.103C94.0363 252.807 97.4956 254.563 100.269 257.166Z" fill="#263238"/>
<path d="M80.036 449.696L84.8042 456.323C82.6322 457.306 80.2658 457.784 77.8827 457.722C73.6179 457.89 72.4433 456.491 72.2895 456.156C71.5624 454.604 72.695 451.821 73.0026 449.43L80.036 449.696Z" fill="#263238"/>
<path d="M84.5105 453.122C84.5105 453.122 90.2854 452.744 94.2985 452.241C98.3116 451.737 101.458 453.639 100.521 455.331C99.584 457.023 97.3747 458.351 93.9489 459.526C91.0265 460.519 87.5028 461.232 84.4406 462.141C81.3783 463.049 79.2949 464.168 77.5191 463.539C75.5335 462.854 74.7225 462.057 74.8484 460.616C75.2815 458.563 75.8182 456.533 76.4564 454.534L84.5105 453.122Z" fill="#263238"/>
<path d="M72.2895 443.012C72.2895 443.012 73.0026 449.025 73.0585 450.325C73.1145 451.625 78.9313 452.031 80.05 449.668L80.2317 442.313L72.2895 443.012Z" fill="#F28F8F"/>
<path d="M78.1483 446.717L76.1208 455.848C76.1208 455.848 75.9111 456.953 80.6792 457.666C85.4474 458.379 92.8862 455.177 94.1587 454.534C95.4311 453.89 95.557 452.59 90.9007 452.842C86.2444 453.093 84.5804 453.121 84.5804 453.121L86.1046 449.066L78.1483 446.717Z" fill="#FFA8A7"/>
<path d="M72.2895 324.479C68.3044 330.674 64.529 336.127 63.718 343.091C62.0121 357.801 67.6052 374.608 68.7938 385.487C66.5328 388.582 65.2254 392.271 65.0324 396.1C65.0324 400.602 72.2895 443.012 72.2895 443.012C72.2895 443.012 77.561 444.62 80.2177 442.313L85.2096 364.289L82.5808 354.794L72.2895 324.479Z" fill="#455A64"/>
<path d="M85.2096 364.288L82.5808 354.794C77.6333 353.508 72.8587 351.63 68.3603 349.201C68.3603 349.201 71.059 354.095 78.7635 356.78L82.7766 368.987L83.1262 396.952L85.2096 364.288Z" fill="#37474F"/>
<path d="M72.2895 324.479C70.1641 327.947 65.0604 333.904 66.1511 339.609C67.4654 346.6 71.1849 351.396 82.5809 354.794L93.2638 393.485C93.2638 393.485 87.6706 398.7 86.0067 403.65C84.3427 408.6 78.1483 446.717 78.1483 446.717C78.1483 446.717 80.05 449.822 86.0626 449.067C86.0626 449.067 107.037 401.259 108.435 398.183C110.224 395.034 110.853 391.358 110.211 387.794C109.54 382.788 102.409 327.947 102.409 327.947L72.2895 324.479Z" fill="#455A64"/>
<path d="M70.3459 289.564C70.7745 288.423 71.5822 287.465 72.6336 286.849C73.685 286.233 74.9162 285.997 76.1208 286.18C83.5737 288.208 95.1654 290.879 97.3607 291.522C97.3607 291.522 96.368 305.882 104.953 310.944C104.548 314.146 102.367 327.947 102.367 327.947C102.367 327.947 92.0473 332.953 83.5597 330.492C75.0721 328.031 72.2196 324.479 72.2196 324.479L76.4145 317.558C75.5056 315.307 71.9959 307.658 69.7307 300.555C68.9447 296.902 69.1572 293.106 70.3459 289.564Z" fill="#FFB900"/>
<path d="M75.3797 314.831C78.9099 316.955 82.6092 318.783 86.4401 320.298C82.9583 320.208 79.5546 319.247 76.5403 317.502L75.3797 314.831Z" fill="#E0E0E0"/>
<path d="M104.772 309.867C101.722 308.469 99.2124 306.112 97.6264 303.156C97.8836 305.427 98.6623 307.609 99.9018 309.53C101.141 311.451 102.808 313.059 104.772 314.23V309.867Z" fill="#E0E0E0"/>
<path d="M97.4306 291.522C102.115 292.92 105.023 293.367 107.554 295.633C110.882 298.625 114.322 315.544 115.021 319.04C116.238 325.095 117.58 331.387 116.266 334.211C115.315 336.253 110.141 337.777 107.876 331.177C107.4 329.779 107.303 329.136 106.883 327.877C104.744 321.557 101.528 309.476 101.528 309.476C101.528 309.476 95.1934 305.98 97.4306 291.522Z" fill="#FFA8A7"/>
<path d="M74.7225 253.195C73.0586 254.16 70.0523 255.096 68.1786 263.836C66.6531 271.167 65.7457 278.613 65.4659 286.096C65.5358 288.809 71.1569 296.346 83.0143 295.633C94.8718 294.92 99.1785 287.97 99.1785 287.97C99.1785 287.97 93.3477 285.593 93.8091 275.386C93.8091 275.386 91.7536 279.427 86.1185 277.399C80.4835 275.372 74.7225 253.195 74.7225 253.195Z" fill="#263238"/>
</svg>
