<svg width="18" height="14" viewBox="0 0 18 14" fill="none" xmlns="http://www.w3.org/2000/svg">
<path d="M9.48214 5.47293L10.6518 6.01758L12.3929 5.49972V4.28543C12.3929 2.22293 10.6518 0.571149 8.57143 0.571149C6.5 0.571149 4.75 2.21401 4.75 4.25865V9.79436C4.75 10.3033 4.33929 10.7051 3.83929 10.7051C3.33929 10.7051 2.92857 10.3033 2.92857 9.79436V7.45508H0C0 9.80329 0 9.83008 0 9.83008C0 11.9461 1.71429 13.6604 3.83036 13.6604C5.92857 13.6604 7.66071 11.9729 7.66071 9.88365V4.41936C7.66071 3.91936 8.07143 3.50865 8.57143 3.50865C9.07143 3.50865 9.48214 3.91936 9.48214 4.41936V5.47293ZM14.2143 7.45508V9.91044C14.2143 10.4104 13.8036 10.8122 13.3036 10.8122C12.8036 10.8122 12.3929 10.4104 12.3929 9.91044V7.49972L10.6518 8.01758L9.48214 7.47294V9.86579C9.48214 11.964 11.2054 13.6604 13.3125 13.6604C15.4286 13.6604 17.1429 11.9461 17.1429 9.83008C17.1429 9.83008 17.1429 9.80329 17.1429 7.45508H14.2143Z" fill="white"/>
</svg>
