<svg width="14" height="17" viewBox="0 0 14 17" fill="none" xmlns="http://www.w3.org/2000/svg">
<path d="M12.5714 1.25865H13.4286C13.5893 1.25865 13.7143 1.13365 13.7143 0.972935V0.401506C13.7143 0.240792 13.5893 0.115791 13.4286 0.115791H0.285714C0.125 0.115791 0 0.240792 0 0.401506V0.972935C0 1.13365 0.125 1.25865 0.285714 1.25865H1.14286C1.14286 4.56222 2.72321 6.95508 4.47321 8.11579C2.72321 9.27651 1.14286 11.6694 1.14286 14.9729H0.285714C0.125 14.9729 0 15.0979 0 15.2586V15.8301C0 15.9908 0.125 16.1158 0.285714 16.1158H13.4286C13.5893 16.1158 13.7143 15.9908 13.7143 15.8301V15.2586C13.7143 15.0979 13.5893 14.9729 13.4286 14.9729H12.5714C12.5714 11.6694 10.9911 9.27651 9.24107 8.11579C10.9911 6.95508 12.5714 4.56222 12.5714 1.25865ZM11.4286 1.25865C11.4286 2.56222 11.1339 3.71401 10.6696 4.68722H3.04464C2.58036 3.71401 2.28571 2.56222 2.28571 1.25865H11.4286ZM10.9196 12.1158H2.79464C3.45536 10.3926 4.64286 9.16936 5.83036 8.68722H7.88393C9.07143 9.16936 10.2589 10.3926 10.9196 12.1158Z" fill="white"/>
</svg>
